<?xml version="1.0" encoding="utf-8"?>
<!DOCTYPE svg PUBLIC "-//W3C//DTD SVG 1.1//EN" "http://www.w3.org/Graphics/SVG/1.1/DTD/svg11.dtd">
<svg xmlns="http://www.w3.org/2000/svg" xmlns:xlink="http://www.w3.org/1999/xlink" version="1.1" height="200" width="200" id="tmcCircleSlugRotate">
	<g id="slugGroup" fill="none" stroke="#E2E2E2">
		<path id="slug0" stroke-width="2" d="M150.000,100.000 L146.194,119.134 L173.910,130.615 L180.000,100.000 z"/>
		<path id="slug1" stroke-width="2" d="M135.355,135.355 L119.134,146.194 L130.615,173.910 L156.569,156.569 z"/>
		<path id="slug2" stroke-width="2" d="M100.000,150.000 L80.866,146.194 L69.385,173.910 L100.000,180.000 z"/>
		<path id="slug3" stroke-width="2" d="M64.645,135.355 L53.806,119.134 L26.090,130.615 L43.431,156.569 z"/>
		<path id="slug4" stroke-width="2" d="M50.000,100.000 L53.806,80.866 L26.090,69.385 L20.000,100.000 z"/>
		<path id="slug5" stroke-width="2" d="M64.645,64.645 L80.866,53.806 L69.385,26.090 L43.431,43.431 z"/>
		<path id="slug6" stroke-width="2" d="M100.000,50.000 L119.134,53.806 L130.615,26.090 L100.000,20.000 z"/>
		<path id="slug7" stroke-width="2" d="M135.355,64.645 L146.194,80.866 L173.910,69.385 L156.569,43.431 z"/>
		<animateTransform
  			attributeType="XML"
			attributeName="transform"
			type="rotate"
			from="0 100 100" to="360 100 100"
			begin="0" dur="9s"
  			repeatCount="indefinite"
			additive="sum"/>
	</g>
</svg>
