<?xml version="1.0" encoding="utf-8"?>
<!DOCTYPE svg PUBLIC "-//W3C//DTD SVG 1.1//EN" "http://www.w3.org/Graphics/SVG/1.1/DTD/svg11.dtd">
<svg xmlns="http://www.w3.org/2000/svg" xmlns:xlink="http://www.w3.org/1999/xlink" version="1.1" fill-rule="evenodd">
	
	<defs>
		<linearGradient id="cityscreen">
			<!-- No offsets because the animation puts them in for us -->
			<stop id="offa" stop-color="#E2E2E2" stop-opacity="0">
				<animate id="citywipeleft" attributeName="offset" begin="0s;" dur="3" values="0;0.8" repeatCount="indefinite" />
			</stop>

			<stop id="offb" stop-color="#E2E2E2" stop-opacity="1">
				<animate id="citywipecentre" attributeName="offset" begin="0s;" dur="3" values="0.1;0.9" repeatCount="indefinite" />
			</stop>		

			<stop id="offc" stop-color="#E2E2E2" stop-opacity="0">
				<animate id="citywiperight" attributeName="offset" begin="0s;" dur="3" values="0.2;1" repeatCount="indefinite" />
			</stop>
		</linearGradient> 
	</defs>

	<path id="cityscape" fill="none" stroke="url(#cityscreen)" transform="translate(1,63) scale(1,-1)" stroke-width="2"
		d="M0.0,0 L0.0,45 L20.512820512820515,45 L20.512820512820515,0 L41.025641025641029,0 L41.025641025641029,45 L51.282051282051285,45 L51.282051282051285,22.5 L61.538461538461547,22.5 L61.538461538461547,45.0 L71.794871794871796,45.0 L71.794871794871796,0.0 L82.051282051282058,0.0 L82.051282051282058,45.0 L112.82051282051283,45.0 L112.82051282051283,0.0 L133.33333333333334,0.0 L133.33333333333334,22.5 L143.58974358974359,22.5 L143.58974358974359,45.0 L153.84615384615387,45.0 L153.84615384615387,22.5 L164.10256410256412,22.5 L164.10256410256412,0.0 L184.61538461538464,0.0 L184.61538461538464,22.5 L194.87179487179489,37.5 L205.12820512820514,22.5 L205.12820512820514,0.0 L205.12820512820514,0.0 L225.64102564102566,0.0 L225.64102564102566,45.0 L246.15384615384619,45.0 L246.15384615384619,0.0 L266.66666666666669,0.0 L266.66666666666669,22.5 L276.92307692307696,22.5 L276.92307692307696,45.0 L287.17948717948718,60.0 L297.43589743589746,45.0 L297.43589743589746,22.5 L307.69230769230774,22.5 L307.69230769230774,0.0 L328.20512820512823,0.0 L328.20512820512823,45.0 L338.46153846153851,45.0 L338.46153846153851,22.5 L348.71794871794873,22.5 L348.71794871794873,0.0 L369.23076923076928,0.0 L369.23076923076928,22.5 L374.35897435897436,37.5 L379.4871794871795,22.5 L389.74358974358978,22.5 L389.74358974358978,0.0
		   M92.307692307692321,15 L92.307692307692321,37.5 L102.56410256410257,37.5 L102.56410256410257,15.0 z" />
</svg>
